# Blender v2.79 (sub 0) OBJ File: ''
# www.blender.org
mtllib W.mtl
o North_North.002
v -0.102383 -0.006000 0.227915
v -0.102383 0.552000 0.003915
v -0.102383 -0.006000 -0.222085
v -0.102383 -0.006000 -0.241085
v -0.102383 0.682000 -0.517085
v -0.102383 0.682000 -0.419085
v -0.102383 0.212000 -0.231085
v -0.102383 0.682000 -0.042085
v -0.102383 0.682000 0.050915
v -0.102383 0.212000 0.240915
v -0.102383 0.682000 0.426915
v -0.102383 0.682000 0.523915
v -0.102383 -0.006000 0.246915
v 0.097617 -0.006000 0.227915
v 0.097617 0.552000 0.003915
v 0.097617 -0.006000 -0.222085
v 0.097617 -0.006000 -0.241085
v 0.097617 0.682000 -0.517085
v 0.097617 0.682000 -0.419085
v 0.097617 0.212000 -0.231085
v 0.097617 0.682000 -0.042085
v 0.097617 0.682000 0.050915
v 0.097617 0.212000 0.240915
v 0.097617 0.682000 0.426915
v 0.097617 0.682000 0.523915
v 0.097617 -0.006000 0.246915
v 0.097617 -0.006000 0.227915
v -0.102383 -0.006000 0.227915
v 0.097617 0.552000 0.003915
v -0.102383 0.552000 0.003915
v 0.097617 -0.006000 -0.222085
v -0.102383 -0.006000 -0.222085
v 0.097617 -0.006000 -0.241085
v -0.102383 -0.006000 -0.241085
v 0.097617 0.682000 -0.517085
v -0.102383 0.682000 -0.517085
v 0.097617 0.682000 -0.419085
v -0.102383 0.682000 -0.419085
v 0.097617 0.212000 -0.231085
v -0.102383 0.212000 -0.231085
v 0.097617 0.682000 -0.042085
v -0.102383 0.682000 -0.042085
v 0.097617 0.682000 0.050915
v -0.102383 0.682000 0.050915
v 0.097617 0.212000 0.240915
v -0.102383 0.212000 0.240915
v 0.097617 0.682000 0.426915
v -0.102383 0.682000 0.426915
v 0.097617 0.682000 0.523915
v -0.102383 0.682000 0.523915
v 0.097617 -0.006000 0.246915
v -0.102383 -0.006000 0.246915
vn -1.0000 -0.0000 0.0000
vn 1.0000 0.0000 -0.0000
vn 0.0000 -0.8284 -0.5601
vn 0.0000 -1.0000 -0.0015
vn 0.0000 -0.8292 0.5588
vn 0.0000 -0.8283 -0.5602
vn 0.0000 0.5602 -0.8283
vn 0.0000 0.8281 0.5606
vn 0.0000 1.0000 0.0009
vn 0.0000 0.8286 -0.5599
vn 0.0000 0.8291 0.5591
vn 0.0000 1.0000 -0.0037
vn 0.0000 0.8270 -0.5621
vn 0.0000 0.5597 0.8287
vn 0.0000 -0.8287 0.5597
usemtl None
s off
f 4//1 6//1 5//1
f 4//1 7//1 6//1
f 7//1 9//1 8//1
f 7//1 2//1 9//1
f 2//1 10//1 9//1
f 10//1 12//1 11//1
f 10//1 13//1 12//1
f 7//1 3//1 2//1
f 1//1 10//1 2//1
f 4//1 3//1 7//1
f 1//1 13//1 10//1
f 19//2 17//2 18//2
f 20//2 17//2 19//2
f 22//2 20//2 21//2
f 15//2 20//2 22//2
f 23//2 15//2 22//2
f 25//2 23//2 24//2
f 26//2 23//2 25//2
f 16//2 20//2 15//2
f 23//2 14//2 15//2
f 16//2 17//2 20//2
f 26//2 14//2 23//2
s 1
f 28//3 30//4 29//4 27//3
f 30//4 32//5 31//5 29//4
f 32//5 34//6 33//6 31//5
f 34//6 36//7 35//7 33//6
f 36//7 38//8 37//8 35//7
f 38//8 40//9 39//9 37//8
f 40//9 42//10 41//10 39//9
f 42//10 44//11 43//11 41//10
f 44//11 46//12 45//12 43//11
f 46//12 48//13 47//13 45//12
f 48//13 50//14 49//14 47//13
f 50//14 52//15 51//15 49//14
f 52//15 28//3 27//3 51//15
